<?xml version="1.0" encoding="utf-8"?>
<svg viewBox="58.921 57.695 199.474 208.68" fill="none" xmlns="http://www.w3.org/2000/svg">
  <circle cx="160.5" cy="160.5" r="96.5" fill="black" transform="matrix(1, 0, 0, 1, 0, 7.105427357601002e-15)"/>
  <circle cx="122" cy="123" r="19" fill="white" transform="matrix(1, 0, 0, 1, 0, 7.105427357601002e-15)"/>
  <circle cx="122" cy="199" r="19" fill="white" transform="matrix(1, 0, 0, 1, 0, 7.105427357601002e-15)"/>
  <circle cx="198" cy="123" r="19" fill="white" transform="matrix(1, 0, 0, 1, 0, 7.105427357601002e-15)"/>
  <circle cx="198" cy="199" r="19" fill="white" transform="matrix(1, 0, 0, 1, 0, 7.105427357601002e-15)"/>
  <circle cx="122" cy="161" r="19" fill="white" transform="matrix(1, 0, 0, 1, 0, 7.105427357601002e-15)"/>
  <circle cx="160" cy="161" r="19" fill="white" transform="matrix(1, 0, 0, 1, 0, 7.105427357601002e-15)"/>
  <circle cx="198" cy="161" r="19" fill="white" transform="matrix(1, 0, 0, 1, 0, 7.105427357601002e-15)"/>
</svg>